<mxfile host="app.diagrams.net" modified="2024-02-02T10:32:12.293Z" agent="Mozilla/5.0 (Windows NT 10.0; Win64; x64) AppleWebKit/537.36 (KHTML, like Gecko) Chrome/121.0.0.0 Safari/537.36" etag="5EqeZ1AIGDTLA7TVjp12" version="23.0.2" type="github">
  <diagram name="Page-1" id="97916047-d0de-89f5-080d-49f4d83e522f">
    <mxGraphModel dx="1500" dy="807" grid="1" gridSize="10" guides="1" tooltips="1" connect="1" arrows="1" fold="1" page="1" pageScale="1.5" pageWidth="1169" pageHeight="827" background="none" math="0" shadow="0">
      <root>
        <mxCell id="0" />
        <mxCell id="1" parent="0" />
        <mxCell id="2" value="OWX Evaluation PL" style="rounded=1;fillColor=#10739E;strokeColor=none;shadow=1;gradientColor=none;fontStyle=1;fontColor=#FFFFFF;fontSize=14;" parent="1" vertex="1">
          <mxGeometry x="710" y="230" width="200" height="60" as="geometry" />
        </mxCell>
        <mxCell id="3" value="UI/React TLÂ " style="rounded=1;fillColor=#10739E;strokeColor=none;shadow=1;gradientColor=none;fontStyle=1;fontColor=#FFFFFF;fontSize=14;" parent="1" vertex="1">
          <mxGeometry x="480" y="340" width="200" height="60" as="geometry" />
        </mxCell>
        <mxCell id="D0tFQq6_KejYttDr2Z5K-58" style="edgeStyle=orthogonalEdgeStyle;rounded=0;orthogonalLoop=1;jettySize=auto;html=1;exitX=1;exitY=0.5;exitDx=0;exitDy=0;entryX=0;entryY=0.5;entryDx=0;entryDy=0;strokeWidth=4;dashed=1;" parent="1" source="7" target="2" edge="1">
          <mxGeometry relative="1" as="geometry" />
        </mxCell>
        <mxCell id="7" value="Advisory / &#xa;Senior Management&#xa;" style="rounded=1;fillColor=#10739E;strokeColor=none;shadow=1;gradientColor=none;fontStyle=1;fontColor=#FFFFFF;fontSize=14;" parent="1" vertex="1">
          <mxGeometry x="400" y="230" width="200" height="60" as="geometry" />
        </mxCell>
        <mxCell id="8" value="Developer" style="rounded=1;fillColor=#10739E;strokeColor=none;shadow=1;gradientColor=none;fontStyle=1;fontColor=#FFFFFF;fontSize=14;" parent="1" vertex="1">
          <mxGeometry x="390" y="470" width="110" height="60" as="geometry" />
        </mxCell>
        <mxCell id="29" value="" style="edgeStyle=elbowEdgeStyle;elbow=vertical;strokeWidth=4;endArrow=block;endFill=1;fontStyle=1;strokeColor=#23445D;" parent="1" source="2" target="3" edge="1">
          <mxGeometry x="22" y="165.5" width="100" height="100" as="geometry">
            <mxPoint x="402" y="325.5" as="sourcePoint" />
            <mxPoint x="502" y="225.5" as="targetPoint" />
          </mxGeometry>
        </mxCell>
        <mxCell id="30" value="" style="edgeStyle=elbowEdgeStyle;elbow=vertical;strokeWidth=4;endArrow=block;endFill=1;fontStyle=1;strokeColor=#23445D;entryX=0.5;entryY=0;entryDx=0;entryDy=0;exitX=0.5;exitY=1;exitDx=0;exitDy=0;" parent="1" source="3" target="D0tFQq6_KejYttDr2Z5K-66" edge="1">
          <mxGeometry x="22" y="165.5" width="100" height="100" as="geometry">
            <mxPoint x="600" y="420" as="sourcePoint" />
            <mxPoint x="892" y="485.5" as="targetPoint" />
          </mxGeometry>
        </mxCell>
        <mxCell id="D0tFQq6_KejYttDr2Z5K-63" value="Developer" style="rounded=1;fillColor=#10739E;strokeColor=none;shadow=1;gradientColor=none;fontStyle=1;fontColor=#FFFFFF;fontSize=14;" parent="1" vertex="1">
          <mxGeometry x="460" y="550" width="110" height="60" as="geometry" />
        </mxCell>
        <mxCell id="D0tFQq6_KejYttDr2Z5K-64" value="Developer" style="rounded=1;fillColor=#10739E;strokeColor=none;shadow=1;gradientColor=none;fontStyle=1;fontColor=#FFFFFF;fontSize=14;" parent="1" vertex="1">
          <mxGeometry x="580" y="550" width="110" height="60" as="geometry" />
        </mxCell>
        <mxCell id="D0tFQq6_KejYttDr2Z5K-66" value="Developer" style="rounded=1;fillColor=#10739E;strokeColor=none;shadow=1;gradientColor=none;fontStyle=1;fontColor=#FFFFFF;fontSize=14;" parent="1" vertex="1">
          <mxGeometry x="650" y="470" width="110" height="60" as="geometry" />
        </mxCell>
        <mxCell id="D0tFQq6_KejYttDr2Z5K-67" value="" style="edgeStyle=elbowEdgeStyle;elbow=vertical;strokeWidth=4;endArrow=block;endFill=1;fontStyle=1;strokeColor=#23445D;entryX=0.5;entryY=0;entryDx=0;entryDy=0;exitX=0.5;exitY=1;exitDx=0;exitDy=0;" parent="1" source="3" target="D0tFQq6_KejYttDr2Z5K-64" edge="1">
          <mxGeometry x="22" y="165.5" width="100" height="100" as="geometry">
            <mxPoint x="570" y="410" as="sourcePoint" />
            <mxPoint x="817" y="480" as="targetPoint" />
          </mxGeometry>
        </mxCell>
        <mxCell id="D0tFQq6_KejYttDr2Z5K-68" value="" style="edgeStyle=elbowEdgeStyle;elbow=vertical;strokeWidth=4;endArrow=block;endFill=1;fontStyle=1;strokeColor=#23445D;entryX=0.5;entryY=0;entryDx=0;entryDy=0;exitX=0.5;exitY=1;exitDx=0;exitDy=0;" parent="1" source="3" target="D0tFQq6_KejYttDr2Z5K-63" edge="1">
          <mxGeometry x="22" y="165.5" width="100" height="100" as="geometry">
            <mxPoint x="340" y="400" as="sourcePoint" />
            <mxPoint x="587" y="470" as="targetPoint" />
          </mxGeometry>
        </mxCell>
        <mxCell id="D0tFQq6_KejYttDr2Z5K-69" value="" style="edgeStyle=elbowEdgeStyle;elbow=vertical;strokeWidth=4;endArrow=block;endFill=1;fontStyle=1;strokeColor=#23445D;entryX=0.5;entryY=0;entryDx=0;entryDy=0;exitX=0.5;exitY=1;exitDx=0;exitDy=0;" parent="1" source="3" target="8" edge="1">
          <mxGeometry x="22" y="165.5" width="100" height="100" as="geometry">
            <mxPoint x="580" y="400" as="sourcePoint" />
            <mxPoint x="827" y="470" as="targetPoint" />
          </mxGeometry>
        </mxCell>
        <mxCell id="D0tFQq6_KejYttDr2Z5K-70" value="DB TL" style="rounded=1;fillColor=#10739E;strokeColor=none;shadow=1;gradientColor=none;fontStyle=1;fontColor=#FFFFFF;fontSize=14;" parent="1" vertex="1">
          <mxGeometry x="710" y="610" width="200" height="60" as="geometry" />
        </mxCell>
        <mxCell id="D0tFQq6_KejYttDr2Z5K-71" value="Developer" style="rounded=1;fillColor=#10739E;strokeColor=none;shadow=1;gradientColor=none;fontStyle=1;fontColor=#FFFFFF;fontSize=14;" parent="1" vertex="1">
          <mxGeometry x="690" y="737.75" width="110" height="60" as="geometry" />
        </mxCell>
        <mxCell id="D0tFQq6_KejYttDr2Z5K-72" value="" style="edgeStyle=elbowEdgeStyle;elbow=vertical;strokeWidth=4;endArrow=block;endFill=1;fontStyle=1;strokeColor=#23445D;exitX=0.5;exitY=1;exitDx=0;exitDy=0;" parent="1" source="2" target="D0tFQq6_KejYttDr2Z5K-70" edge="1">
          <mxGeometry x="22" y="165.5" width="100" height="100" as="geometry">
            <mxPoint x="1330" y="325.5" as="sourcePoint" />
            <mxPoint x="992" y="225" as="targetPoint" />
          </mxGeometry>
        </mxCell>
        <mxCell id="D0tFQq6_KejYttDr2Z5K-73" value="" style="edgeStyle=elbowEdgeStyle;elbow=vertical;strokeWidth=4;endArrow=block;endFill=1;fontStyle=1;strokeColor=#23445D;entryX=0.5;entryY=0;entryDx=0;entryDy=0;exitX=0.5;exitY=1;exitDx=0;exitDy=0;" parent="1" source="D0tFQq6_KejYttDr2Z5K-70" target="D0tFQq6_KejYttDr2Z5K-76" edge="1">
          <mxGeometry x="22" y="165.5" width="100" height="100" as="geometry">
            <mxPoint x="830" y="690" as="sourcePoint" />
            <mxPoint x="1122" y="755.5" as="targetPoint" />
          </mxGeometry>
        </mxCell>
        <mxCell id="D0tFQq6_KejYttDr2Z5K-76" value="Developer" style="rounded=1;fillColor=#10739E;strokeColor=none;shadow=1;gradientColor=none;fontStyle=1;fontColor=#FFFFFF;fontSize=14;" parent="1" vertex="1">
          <mxGeometry x="820" y="737.75" width="110" height="60" as="geometry" />
        </mxCell>
        <mxCell id="D0tFQq6_KejYttDr2Z5K-79" value="" style="edgeStyle=elbowEdgeStyle;elbow=vertical;strokeWidth=4;endArrow=block;endFill=1;fontStyle=1;strokeColor=#23445D;entryX=0.5;entryY=0;entryDx=0;entryDy=0;exitX=0.5;exitY=1;exitDx=0;exitDy=0;" parent="1" source="D0tFQq6_KejYttDr2Z5K-70" target="D0tFQq6_KejYttDr2Z5K-71" edge="1">
          <mxGeometry x="22" y="165.5" width="100" height="100" as="geometry">
            <mxPoint x="810" y="670" as="sourcePoint" />
            <mxPoint x="1057" y="740" as="targetPoint" />
          </mxGeometry>
        </mxCell>
        <mxCell id="D0tFQq6_KejYttDr2Z5K-80" value="Batch TL" style="rounded=1;fillColor=#10739E;strokeColor=none;shadow=1;gradientColor=none;fontStyle=1;fontColor=#FFFFFF;fontSize=14;" parent="1" vertex="1">
          <mxGeometry x="950" y="340" width="200" height="60" as="geometry" />
        </mxCell>
        <mxCell id="D0tFQq6_KejYttDr2Z5K-82" value="" style="edgeStyle=elbowEdgeStyle;elbow=vertical;strokeWidth=4;endArrow=block;endFill=1;fontStyle=1;strokeColor=#23445D;exitX=0.5;exitY=1;exitDx=0;exitDy=0;" parent="1" source="2" target="D0tFQq6_KejYttDr2Z5K-80" edge="1">
          <mxGeometry x="22" y="165.5" width="100" height="100" as="geometry">
            <mxPoint x="1540" y="326" as="sourcePoint" />
            <mxPoint x="1202" y="225.5" as="targetPoint" />
          </mxGeometry>
        </mxCell>
        <mxCell id="D0tFQq6_KejYttDr2Z5K-84" value="Developer" style="rounded=1;fillColor=#10739E;strokeColor=none;shadow=1;gradientColor=none;fontStyle=1;fontColor=#FFFFFF;fontSize=14;" parent="1" vertex="1">
          <mxGeometry x="940" y="460" width="110" height="60" as="geometry" />
        </mxCell>
        <mxCell id="D0tFQq6_KejYttDr2Z5K-85" value="Developer" style="rounded=1;fillColor=#10739E;strokeColor=none;shadow=1;gradientColor=none;fontStyle=1;fontColor=#FFFFFF;fontSize=14;" parent="1" vertex="1">
          <mxGeometry x="1060" y="460" width="110" height="60" as="geometry" />
        </mxCell>
        <mxCell id="D0tFQq6_KejYttDr2Z5K-87" value="" style="edgeStyle=elbowEdgeStyle;elbow=vertical;strokeWidth=4;endArrow=block;endFill=1;fontStyle=1;strokeColor=#23445D;entryX=0.5;entryY=0;entryDx=0;entryDy=0;exitX=0.5;exitY=1;exitDx=0;exitDy=0;" parent="1" source="D0tFQq6_KejYttDr2Z5K-80" target="D0tFQq6_KejYttDr2Z5K-85" edge="1">
          <mxGeometry x="22" y="165.5" width="100" height="100" as="geometry">
            <mxPoint x="1040" y="410" as="sourcePoint" />
            <mxPoint x="1287" y="480" as="targetPoint" />
          </mxGeometry>
        </mxCell>
        <mxCell id="D0tFQq6_KejYttDr2Z5K-88" value="" style="edgeStyle=elbowEdgeStyle;elbow=vertical;strokeWidth=4;endArrow=block;endFill=1;fontStyle=1;strokeColor=#23445D;entryX=0.5;entryY=0;entryDx=0;entryDy=0;exitX=0.5;exitY=1;exitDx=0;exitDy=0;" parent="1" source="D0tFQq6_KejYttDr2Z5K-80" target="D0tFQq6_KejYttDr2Z5K-84" edge="1">
          <mxGeometry x="22" y="165.5" width="100" height="100" as="geometry">
            <mxPoint x="810" y="400" as="sourcePoint" />
            <mxPoint x="1057" y="470" as="targetPoint" />
          </mxGeometry>
        </mxCell>
        <mxCell id="D0tFQq6_KejYttDr2Z5K-115" value="NRI PIC #1" style="rounded=1;fillColor=#fff2cc;strokeColor=#d6b656;shadow=1;fontStyle=1;fontSize=14;" parent="1" vertex="1">
          <mxGeometry x="710" y="120" width="200" height="60" as="geometry" />
        </mxCell>
        <mxCell id="D0tFQq6_KejYttDr2Z5K-116" value="NRI ManagementÂ " style="rounded=1;fillColor=#fff2cc;strokeColor=#d6b656;shadow=1;fontStyle=1;fontSize=14;" parent="1" vertex="1">
          <mxGeometry x="400" y="120" width="200" height="60" as="geometry" />
        </mxCell>
        <mxCell id="D0tFQq6_KejYttDr2Z5K-117" style="edgeStyle=orthogonalEdgeStyle;rounded=0;orthogonalLoop=1;jettySize=auto;html=1;strokeWidth=4;dashed=1;entryX=0;entryY=0.5;entryDx=0;entryDy=0;exitX=1;exitY=0.5;exitDx=0;exitDy=0;" parent="1" source="D0tFQq6_KejYttDr2Z5K-116" target="D0tFQq6_KejYttDr2Z5K-115" edge="1">
          <mxGeometry relative="1" as="geometry">
            <mxPoint x="620" y="180" as="sourcePoint" />
            <mxPoint x="660" y="160" as="targetPoint" />
          </mxGeometry>
        </mxCell>
        <mxCell id="D0tFQq6_KejYttDr2Z5K-118" style="edgeStyle=orthogonalEdgeStyle;rounded=0;orthogonalLoop=1;jettySize=auto;html=1;exitX=0.5;exitY=1;exitDx=0;exitDy=0;entryX=0.5;entryY=0;entryDx=0;entryDy=0;strokeWidth=4;" parent="1" source="D0tFQq6_KejYttDr2Z5K-115" target="2" edge="1">
          <mxGeometry relative="1" as="geometry">
            <mxPoint x="620" y="280" as="sourcePoint" />
            <mxPoint x="730" y="280" as="targetPoint" />
          </mxGeometry>
        </mxCell>
      </root>
    </mxGraphModel>
  </diagram>
</mxfile>
